<svg width="96" height="101" viewBox="0 0 96 101" fill="none" xmlns="http://www.w3.org/2000/svg">
<path d="M30.4947 67.7732C28.1279 65.0695 25.679 62.259 23.7395 58.1254C21.8412 54.0493 20.7893 49.8417 20.8222 45.4698C20.8633 41.0979 21.9727 36.5944 24.3888 31.9431C24.4052 31.9102 24.4216 31.8856 24.4381 31.8527C27.602 26.4946 32.0314 22.9116 36.9622 20.9064C41.0958 19.2135 45.591 18.6383 49.9958 19.0409C54.3842 19.4436 58.6822 20.8242 62.4378 23.0431C67.2124 25.87 71.1405 30.0612 73.3019 35.3535C74.4688 38.2216 75.2577 41.4184 75.3563 44.9192C75.455 48.4118 74.8551 52.1756 73.2443 56.1531C70.779 62.259 65.0182 68.8005 61.2462 74.8078C61.0407 74.7667 60.8271 74.7585 60.6134 74.7914L55.5265 75.5474L63.276 48.5926C63.4979 47.8283 63.0459 47.0312 62.2816 46.8093C61.5174 46.5956 60.7202 47.0394 60.4983 47.8037L52.3872 76.024L44.6953 77.1663L36.5677 51.3292C37.1512 51.4442 37.7676 51.1895 38.0881 50.6471L43.8488 40.8431L46.7826 47.5736C47.1031 48.305 47.9496 48.6337 48.6727 48.3214C49.0343 48.1653 49.2973 47.8694 49.437 47.5325L52.0339 40.9746L55.0745 48.9953C55.3539 49.7431 56.1839 50.1129 56.9318 49.8335C57.6796 49.5541 58.0494 48.7241 57.77 47.9763L53.4391 36.5533C53.3159 36.1507 53.0118 35.8055 52.5927 35.6411C51.8531 35.3453 51.0148 35.7151 50.719 36.4547L48.0317 43.2509L45.3527 37.1039C45.2376 36.8327 45.0322 36.5944 44.761 36.4383C44.0789 36.0356 43.1914 36.2657 42.7969 36.9478L35.7952 48.8638L35.294 47.2777C35.0556 46.5217 34.2503 46.0943 33.4942 46.3327C32.7382 46.571 32.3108 47.3763 32.5492 48.1324L41.8108 77.5937L36.239 78.4237C34.8913 74.438 32.8368 70.4605 30.4947 67.7732ZM12.3248 15.2032C11.6756 14.595 11.3305 13.7815 11.2976 12.9597C11.2647 12.1379 11.5524 11.2996 12.1523 10.6504C12.7604 10.0012 13.574 9.65606 14.3958 9.62319C15.2176 9.59032 16.0558 9.87795 16.705 10.4779L21.8659 15.2853C22.5151 15.8935 22.8602 16.707 22.8931 17.5288C22.926 18.3588 22.6383 19.1889 22.0384 19.8381C21.4303 20.4873 20.6167 20.8324 19.7949 20.8653C18.9649 20.8982 18.1349 20.6106 17.4857 20.0107L12.3248 15.2032ZM3.88504 50.68C3.01394 50.6964 2.2168 50.3595 1.62511 49.8088C1.0252 49.2418 0.638957 48.4529 0.606086 47.5571C0.573214 46.6696 0.910149 45.8478 1.47719 45.2479C2.04422 44.648 2.83314 44.2617 3.7289 44.2371L10.7717 43.9988C11.6592 43.9659 12.481 44.3028 13.0809 44.8699C13.6808 45.4369 14.067 46.2258 14.0917 47.1216V47.1709H14.0999L14.0917 47.2859C14.0753 48.116 13.7466 48.8638 13.2206 49.4308C12.6536 50.0307 11.8646 50.4088 10.9689 50.4416H10.9196V50.4499H10.8456L3.88504 50.68ZM91.5868 40.6952L91.6936 40.687C92.5318 40.6376 93.3125 40.9088 93.9206 41.4019C94.5616 41.9196 94.9972 42.6921 95.0958 43.5714V43.6043C95.104 43.6043 95.104 43.6947 95.104 43.7112C95.1533 44.5494 94.8821 45.3301 94.3891 45.9382C93.8713 46.5792 93.0989 47.0148 92.2195 47.1134L85.2096 47.853C84.3221 47.9434 83.4839 47.664 82.8511 47.1462C82.2101 46.6285 81.7663 45.856 81.6759 44.9767C81.5855 44.0974 81.865 43.2509 82.3827 42.6182C82.9004 41.9772 83.6729 41.5334 84.5522 41.443C86.8943 41.1882 89.2446 40.9171 91.5868 40.6952ZM77.6985 12.6392C78.1998 11.8996 78.9394 11.4394 79.7447 11.275C80.5501 11.1189 81.413 11.2668 82.1608 11.7599L82.169 11.7681C82.9086 12.2611 83.3771 13.009 83.5332 13.8143C83.6893 14.6197 83.5414 15.4826 83.0483 16.2304L79.1284 22.0898C78.6353 22.8294 77.8875 23.2978 77.0739 23.4622C76.2685 23.6183 75.4057 23.4704 74.6578 22.9773C73.9182 22.4842 73.4498 21.7282 73.2854 20.9228C73.1293 20.1175 73.2772 19.2546 73.7703 18.5068L77.6985 12.6392ZM47.2593 3.15568C47.2839 2.25993 47.6619 1.46279 48.2618 0.895754C48.8453 0.336935 49.6507 0 50.5218 0.00821793V0C50.5957 0 50.6697 0.00821793 50.7437 0.0164359C51.5572 0.0821793 52.2886 0.451986 52.8146 1.00259C53.3734 1.58606 53.7103 2.3832 53.7021 3.26252H53.7103C53.7103 3.32004 53.7103 3.37757 53.7021 3.42688L53.5295 10.3053H53.5378C53.5378 10.3792 53.5295 10.4532 53.5213 10.5272C53.4556 11.349 53.0858 12.0721 52.5352 12.5981C51.9435 13.1569 51.1463 13.4938 50.2752 13.4856V13.4938C50.2013 13.4938 50.1273 13.4856 50.0533 13.4774C49.2316 13.4117 48.5084 13.0418 47.9824 12.4912C47.4236 11.8996 47.0867 11.1024 47.0949 10.2313H47.0867C47.0867 10.1738 47.0867 10.1163 47.0949 10.067L47.2593 3.15568ZM59.2985 78.7688L58.7808 81.1931L58.6493 82.9189L37.8333 86.017C37.7593 84.7761 37.5621 83.4366 37.2498 82.0478L59.2985 78.7688ZM58.6082 86.6991L58.6246 87.7428L58.6493 88.1044C58.7068 88.7865 58.715 89.4768 58.674 90.1589L58.3617 91.6628L39.0249 94.539L38.688 93.7665L37.9319 90.6766L37.9155 89.7808L58.6082 86.6991ZM57.0879 95.6238C56.0853 97.3413 54.7047 98.6809 53.1269 99.5931C51.7216 100.415 50.152 100.883 48.5823 100.982C46.9881 101.08 45.3773 100.776 43.9063 100.07C42.9038 99.5766 41.9669 98.8945 41.1369 98.007L57.0879 95.6238Z" fill="#45884D"/>
</svg>
