<svg width="127" height="101" viewBox="0 0 127 101" fill="none" xmlns="http://www.w3.org/2000/svg">
<path fill-rule="evenodd" clip-rule="evenodd" d="M126.25 0V101H0V0H126.25ZM107.312 63.125H69.4375V72.5938H107.312V63.125ZM37.0859 46.0813H32.3516C23.2 46.0813 15.7812 53.6562 15.7812 63.125H53.6562C53.6562 53.6562 46.2075 46.0813 37.0859 46.0813ZM107.312 44.1875H69.4375V53.6562H107.312V44.1875ZM34.7187 23.2654C30.143 23.2654 26.4336 26.9748 26.4336 31.5505C26.4336 36.1263 30.143 39.8357 34.7187 39.8357C39.2945 39.8357 43.0039 36.1263 43.0039 31.5505C43.0039 26.9748 39.2945 23.2654 34.7187 23.2654ZM107.312 25.25H69.4375V34.7188H107.312V25.25Z" fill="#D7D7D7"/>
</svg>
