<svg width="94" height="101" viewBox="0 0 94 101" fill="none" xmlns="http://www.w3.org/2000/svg">
<path d="M48.5843 7.8787V95.9146C47.9243 95.9422 47.2581 95.9576 46.589 95.9576C45.9197 95.9576 45.2537 95.9422 44.5936 95.9146V7.8787C45.2537 7.83866 45.9198 7.82031 46.589 7.82031C47.2581 7.82031 47.9243 7.83866 48.5843 7.8787Z" fill="#E9E9E9"/>
<path d="M93.1748 54.4051C93.1748 55.0222 93.1626 55.6361 93.1381 56.2472C92.7144 67.1606 88.5333 77.1134 81.8531 84.8465C81.0396 85.792 80.1862 86.7037 79.296 87.5788C71.3266 95.4347 60.5357 100.445 48.5846 100.948C47.9245 100.976 47.2583 100.991 46.5892 100.991C45.9199 100.991 45.2539 100.976 44.5939 100.948C32.6427 100.445 21.8519 95.4347 13.8825 87.5758C12.9922 86.7039 12.1389 85.7922 11.3222 84.8468C4.64196 77.1136 0.46071 67.161 0.0371796 56.2476C0.0125213 55.6369 0.000488281 55.0228 0.000488281 54.4055C0.000488281 53.7885 0.0129158 53.1746 0.0371796 52.5635C0.460907 41.6501 4.64196 31.6972 11.3222 23.9642C12.1389 23.0187 12.9891 22.107 13.8793 21.2319C21.8487 13.373 32.6395 8.36264 44.5939 7.85941C45.2539 7.83179 45.9201 7.81641 46.5892 7.81641C47.2585 7.81641 47.9245 7.83179 48.5846 7.85941C60.5357 8.36303 71.3266 13.373 79.296 21.2319C80.1862 22.1068 81.0396 23.0185 81.8531 23.9642C88.5333 31.6974 92.7146 41.6501 93.1381 52.5635C93.1626 53.174 93.1748 53.7881 93.1748 54.4051Z" fill="#E9E9E9"/>
<path d="M26.0877 87.5762C25.1974 86.7043 24.344 85.7925 23.5273 84.8468C16.8471 77.1136 12.6659 67.161 12.2423 56.2476C12.2179 55.6365 12.2056 55.0228 12.2056 54.4055C12.2056 53.7885 12.2181 53.1746 12.2423 52.5635C12.6661 41.6501 16.8471 31.6972 23.5273 23.9642C24.344 23.0187 25.1942 22.107 26.0845 21.2319C33.1299 14.2842 42.381 9.56556 52.6912 8.21626C51.3393 8.03912 49.9701 7.9176 48.5841 7.85941C47.924 7.83179 47.2579 7.81641 46.5887 7.81641C45.9194 7.81641 45.2534 7.83179 44.5934 7.85941C32.6391 8.36303 21.8484 13.373 13.8789 21.2319C12.9886 22.1068 12.1382 23.0185 11.3217 23.9642C4.64148 31.6974 0.460222 41.6501 0.0366917 52.5635C0.0122307 53.1742 0 53.7883 0 54.4055C0 55.0226 0.0124279 55.6365 0.0366917 56.2476C0.460419 67.161 4.64148 77.1138 11.3217 84.8468C12.1384 85.7923 12.9916 86.7041 13.882 87.5762C21.8514 95.4351 32.6422 100.445 44.5934 100.949C45.2534 100.976 45.9196 100.992 46.5887 100.992C47.2581 100.992 47.9242 100.976 48.5841 100.949C49.9699 100.89 51.3395 100.769 52.6916 100.592C42.3842 99.2423 33.133 94.5237 26.0877 87.5762Z" fill="#E9E9E9"/>
<path d="M72.0655 79.8626C75.246 72.3633 76.9547 63.5814 76.9547 54.4044C76.9547 45.228 75.2464 36.4465 72.0663 28.9474C75.5196 27.6171 78.7248 26.003 81.6106 24.1239L81.8531 23.9643C81.0395 23.0188 80.1862 22.107 79.2959 21.232C76.663 22.9131 73.6985 24.3697 70.4923 25.5793C69.8208 24.2681 69.1018 23.0042 68.3332 21.7959C63.0591 13.505 56.1077 8.64125 48.5843 7.90861V7.85929C48.1947 7.84292 47.8024 7.83266 47.4088 7.82556C47.1358 7.81471 46.8622 7.80859 46.5876 7.80859C46.3132 7.80859 46.0392 7.81471 45.766 7.82595C45.3734 7.83305 44.9821 7.84351 44.5932 7.85969V7.9088C37.0695 8.64066 30.1173 13.5045 24.8428 21.7961C24.0744 23.0042 23.3556 24.2683 22.6839 25.5791C19.4779 24.3695 16.5126 22.9133 13.8793 21.2322C12.989 22.107 12.1386 23.0188 11.3221 23.9645L11.5646 24.1241C14.4512 26.003 17.6569 27.6171 21.1105 28.9474C18.1434 35.9435 16.4597 44.0559 16.2469 52.5637H0.0369358C0.0122775 53.1745 0.000244141 53.7886 0.000244141 54.4058C0.000244141 55.0229 0.0126721 55.6368 0.0369358 56.2479H16.2467C16.4597 64.7554 18.1438 72.8676 21.1107 79.8632C17.6571 81.1942 14.4512 82.8082 11.5644 84.6875L11.3219 84.8471C12.1386 85.7926 12.9922 86.7044 13.8823 87.5761C16.5154 85.8966 19.4795 84.4408 22.6849 83.2311C23.3564 84.5416 24.075 85.8053 24.843 87.0131C30.1177 95.305 37.0697 100.169 44.5934 100.901V100.949C44.9744 100.965 45.3578 100.975 45.7423 100.982C46.0236 100.994 46.3053 101.001 46.5878 101.001C46.8701 101.001 47.1518 100.994 47.4329 100.982C47.8183 100.975 48.2024 100.965 48.5841 100.949V100.9C56.1073 100.168 63.0589 95.3042 68.333 87.0131C69.1014 85.8053 69.82 84.5416 70.4915 83.2309C73.6979 84.441 76.6628 85.8982 79.2955 87.5793C80.1858 86.7044 81.0391 85.7924 81.8527 84.8469L81.6102 84.6873C78.7244 82.8076 75.519 81.1934 72.0655 79.8626ZM72.9637 54.4044C72.9637 63.1581 71.3254 71.4952 68.2843 78.5512C62.2302 76.6677 55.5535 75.5963 48.5843 75.4241V56.2471H67.0315C68.0486 56.2471 68.8735 55.4225 68.8735 54.405C68.8735 53.3879 68.049 52.563 67.0315 52.563H48.5843V33.383C55.5535 33.2111 62.2302 32.1404 68.2845 30.2577C71.3256 37.3143 72.9637 45.6507 72.9637 54.4044ZM64.9659 23.9381C65.5644 24.879 66.1284 25.8602 66.6638 26.871C61.0701 28.5503 54.9089 29.527 48.5845 29.6976V11.9228C54.716 12.6736 60.471 16.8726 64.9659 23.9381ZM28.2103 23.9381C32.7052 16.8718 38.4612 12.6726 44.5936 11.9222V29.6978C38.2697 29.5272 32.1079 28.5501 26.5128 26.8706C27.0478 25.8598 27.6118 24.8788 28.2103 23.9381ZM24.8915 30.2581C30.9466 32.141 37.6238 33.2117 44.5934 33.3836V52.5635H20.2407C20.4536 44.4841 22.0645 36.8172 24.8915 30.2581ZM20.2407 56.2475H44.5934V75.4245C37.6238 75.5963 30.9468 76.6681 24.8917 78.5518C22.0647 71.9929 20.4538 64.3263 20.2407 56.2475ZM28.2103 84.8708C27.612 83.9302 27.0482 82.9496 26.513 81.939C32.1079 80.2589 38.2693 79.2807 44.5934 79.11V96.8867C38.4612 96.1361 32.7052 91.9373 28.2103 84.8708ZM64.9659 84.8708C60.4712 91.9361 54.716 96.1353 48.5845 96.8863V79.1098C54.9089 79.2805 61.0697 80.2583 66.6634 81.9382C66.128 82.9492 65.564 83.93 64.9659 84.8708Z" fill="#00011B"/>
<path d="M93.1379 52.5625H83.1455C82.1284 52.5625 81.3035 53.3871 81.3035 54.4046C81.3035 55.4217 82.128 56.2466 83.1455 56.2466H93.1379C93.1625 55.6359 93.1745 55.0218 93.1745 54.4046C93.1747 53.7873 93.1625 53.1732 93.1379 52.5625Z" fill="#00011B"/>
<path d="M84.9738 11.8351C81.5371 -3.94503 58.7619 -3.94503 55.3251 11.8351C54.9811 13.4142 54.7998 15.0543 54.7998 16.7367C54.7998 26.7443 61.211 35.2529 70.1495 38.3835C79.088 35.2527 85.4991 26.7441 85.4991 16.7367C85.499 15.0545 85.3177 13.4144 84.9738 11.8351Z" fill="#838383"/>
<path d="M70.1487 22.1592C73.8257 22.1592 76.8064 19.1784 76.8064 15.5015C76.8064 11.8245 73.8257 8.84375 70.1487 8.84375C66.4717 8.84375 63.491 11.8245 63.491 15.5015C63.491 19.1784 66.4717 22.1592 70.1487 22.1592Z" fill="#E9E9E9"/>
<path d="M70.1496 24.0103C65.4586 24.0103 61.6425 20.194 61.6425 15.5032C61.6425 10.8124 65.4588 6.99609 70.1496 6.99609C74.8402 6.99609 78.6567 10.8124 78.6567 15.5032C78.6565 20.194 74.8403 24.0103 70.1496 24.0103ZM70.1496 10.6948C67.4981 10.6948 65.3412 12.8517 65.3412 15.5032C65.3412 18.1543 67.4981 20.3116 70.1496 20.3116C72.8006 20.3116 74.9579 18.1546 74.9579 15.5032C74.9577 12.8517 72.8006 10.6948 70.1496 10.6948Z" fill="black"/>
</svg>
