<svg width="99" height="46" viewBox="0 0 99 46" fill="none" xmlns="http://www.w3.org/2000/svg">
<path d="M50.0409 27.3937C38.9709 27.3937 29.5657 30.6091 23.4225 35.6491V45.0234H76.6634V35.6491C70.5202 30.6091 61.1129 27.3937 50.0409 27.3937ZM98.9221 22.5828L49.9119 0.0234375L0.922119 22.5828L9.08844 26.3157V32.0573C7.04072 32.4807 7.03458 33.5525 7.03458 34.8268C7.03458 35.5796 7.2844 36.4612 7.75947 36.9889L4.95818 42.978H14.9511L12.1744 36.9848C12.6412 36.4571 13.0242 35.6798 13.0242 34.9271C13.0242 33.6548 11.1362 32.4787 11.1362 32.0553V27.275L21.3748 31.8691V31.4621C27.518 26.1255 38.3115 22.7382 50.0388 22.7382C61.7703 22.7382 72.5679 26.1255 78.7111 31.4621V31.8691L98.9221 22.5828Z" fill="#C7053C"/>
</svg>
