<svg width="128" height="124" viewBox="0 0 128 124" fill="none" xmlns="http://www.w3.org/2000/svg">
<rect y="0.046875" width="127.844" height="123.05" rx="61.525" fill="white"/>
<path fill-rule="evenodd" clip-rule="evenodd" d="M87.9219 83.0208V29.5703H50.3536C44.6458 29.5786 39.9219 34.2286 39.9219 40.0878V93.5703H87.9219V88.6472H44.7219C44.7219 85.6018 47.2128 83.0208 50.4219 83.0208H87.9219ZM44.7219 40.0878C44.7219 37.0539 47.195 34.4934 50.3689 34.4934H83.1219V78.0977H50.4219C48.3313 78.0977 46.3703 78.7164 44.7219 79.788V40.0878ZM55.4356 54.1857H52.1619C52.7989 50.9673 54.6603 48.2048 57.2258 46.4323C56.3937 48.5632 55.6913 51.1625 55.4356 54.1857ZM47.1219 56.6472C47.1219 48.0811 53.2164 40.975 61.2009 39.6413L61.2092 39.6318L61.2771 39.5569L61.3001 39.5321L61.3088 39.5229L61.3139 39.5174C61.3139 39.5174 61.3145 39.5168 61.407 39.6082C62.2272 39.4819 63.0672 39.4165 63.9219 39.4165C64.7766 39.4165 65.6166 39.4819 66.4368 39.6082C66.5292 39.5168 66.5315 39.5191 66.5315 39.5191L66.535 39.5229L66.5436 39.5322L66.5667 39.5569L66.6345 39.6318L66.6428 39.6413C74.6275 40.975 80.7219 48.0811 80.7219 56.6472C80.7219 65.2134 74.6275 72.3194 66.6428 73.6532L66.6345 73.6627L66.5667 73.7375L66.5436 73.7625L66.535 73.7717L66.5299 73.7769C66.5299 73.7769 66.5292 73.7776 66.4368 73.6863C65.6166 73.8127 64.7766 73.878 63.9219 73.878C63.0672 73.878 62.2272 73.8127 61.407 73.6863C61.3145 73.7776 61.3123 73.7753 61.3123 73.7753L61.3088 73.7717L61.3001 73.7625L61.2771 73.7375L61.2316 73.6876L61.2092 73.6627L61.2009 73.6532C53.2164 72.3194 47.1219 65.2134 47.1219 56.6472ZM65.3273 46.3913C64.9104 45.5652 64.496 44.8793 64.1376 44.3415C64.0659 44.3402 63.9939 44.3395 63.9219 44.3395C63.8499 44.3395 63.7779 44.3402 63.7062 44.3415C63.3478 44.8793 62.9334 45.5652 62.5164 46.3913C61.5593 48.2872 60.5945 50.9113 60.2576 54.1857H67.5862C67.2492 50.9113 66.2844 48.2872 65.3273 46.3913ZM52.1619 59.1088H55.4356C55.6913 62.1319 56.3937 64.7313 57.2258 66.8623C54.6604 65.0897 52.7989 62.3272 52.1619 59.1088ZM62.5164 66.9033C62.9334 67.7294 63.3478 68.415 63.7062 68.953C63.7779 68.9543 63.8499 68.9549 63.9219 68.9549C63.9939 68.9549 64.0659 68.9543 64.1376 68.953C64.496 68.415 64.9104 67.7294 65.3273 66.9033C66.2844 65.0073 67.2492 62.3833 67.5862 59.1088H60.2576C60.5945 62.3833 61.5593 65.0073 62.5164 66.9033ZM75.6819 59.1088C75.0448 62.3272 73.1833 65.0897 70.6179 66.8623C71.4499 64.7313 72.1523 62.1319 72.408 59.1088H75.6819ZM70.6179 46.4323C71.4499 48.5632 72.1523 51.1625 72.408 54.1857H75.6819C75.0448 50.9673 73.1833 48.2048 70.6179 46.4323Z" fill="#005323"/>
</svg>
