<svg width="128" height="124" viewBox="0 0 128 124" fill="none" xmlns="http://www.w3.org/2000/svg">
<rect x="0.078125" width="127.844" height="123.05" rx="61.525" fill="white"/>
<path d="M88.3291 47.534L85.3475 44.5514C84.164 43.3857 82.171 43.2719 80.8309 44.612V41.5339C80.8309 38.6757 78.5287 36.2734 75.5705 36.2734H44.008C41.1075 36.2734 38.7476 38.6334 38.7476 41.5339V83.6172C38.7476 85.3576 40.1634 86.7734 41.9038 86.7734H69.258C70.9984 86.7734 72.4142 85.3576 72.4142 83.6172V67.9141C77.9441 62.3842 82.7032 57.6251 88.3291 51.9992C88.3291 51.9992 88.3291 51.9992 88.3301 51.9992C89.56 50.7673 89.56 48.7639 88.3291 47.534ZM75.5706 38.3776C77.3569 38.3776 78.7269 39.829 78.7269 41.5339V46.7162C77.6624 47.7806 78.7416 46.7009 72.4144 53.0314V41.5339C72.4144 39.7934 73.8301 38.3776 75.5706 38.3776ZM62.9111 73.8924C61.3866 74.3742 60.1485 74.7655 58.9303 75.1471L58.8911 75.1595C58.5386 74.7372 58.1485 74.3472 57.726 73.995L58.9967 69.9657C60.7512 70.7213 62.1609 72.1351 62.9111 73.8924ZM45.0602 65.7318H52.4248C53.0063 65.7318 53.4769 66.2023 53.4769 66.7839C53.4769 67.3654 53.0063 67.8359 52.4248 67.8359H45.0602C44.4787 67.8359 44.0081 67.3654 44.0081 66.7839C44.0081 66.2023 44.4787 65.7318 45.0602 65.7318ZM45.0602 70.9922H52.4248C53.0063 70.9922 53.4769 71.4627 53.4769 72.0443C53.4769 72.6258 53.0063 73.0964 52.4248 73.0964H45.0602C44.4787 73.0964 44.0081 72.6258 44.0081 72.0443C44.0081 71.4627 44.4787 70.9922 45.0602 70.9922ZM66.1019 78.3568H55.581H45.0602C44.4787 78.3568 44.0081 77.8862 44.0081 77.3047C44.0081 76.7231 44.4787 76.2526 45.0602 76.2526H54.8093L54.5772 76.9893C54.46 77.3633 54.5597 77.7712 54.8372 78.0486C55.0375 78.2489 55.3067 78.3568 55.581 78.3568C55.6869 78.3568 55.7937 78.3405 55.8974 78.3086L59.5612 77.1549C60.2652 76.9342 60.8738 76.7431 62.4263 76.2529H66.1019C66.6834 76.2529 67.1539 76.7234 67.1539 77.305C67.1539 77.8865 66.6834 78.3568 66.1019 78.3568ZM64.6723 72.6797C64.3574 72.0256 63.9645 71.4167 63.5152 70.855L76.4767 57.8926C76.8877 57.4816 76.8877 56.8158 76.4767 56.4048C76.0657 55.9938 75.3999 55.9938 74.9889 56.4048L62.0292 69.3655C61.4719 68.9172 60.868 68.5245 60.2189 68.209C61.4235 67.0035 59.9598 68.4681 78.6528 49.7656L83.1201 54.2329C68.35 69.0028 72.2558 65.0974 64.6723 72.6797Z" fill="#0455BF"/>
</svg>
