<svg width="128" height="124" viewBox="0 0 128 124" fill="none" xmlns="http://www.w3.org/2000/svg">
<rect y="0.046875" width="127.844" height="123.05" rx="61.525" fill="white"/>
<path d="M100.283 45.2867C98.7106 42.563 96.1716 40.6146 93.1336 39.8008C90.0961 38.9869 86.9227 39.4045 84.1988 40.9771L61.9581 53.8177L45.892 45.7999L36.7086 51.1021L46.7031 62.6251L40.8542 66.0019L33.841 60.5361L25.9858 65.0713L30.1058 72.2074L36.7696 83.7494L65.1042 79.1934L95.9734 61.371C101.596 58.1248 103.529 50.9093 100.283 45.2867ZM78.1831 59.2992L75.9292 55.3956L80.1582 52.9539L82.4122 56.8576L78.1831 59.2992ZM85.47 55.0919L83.2161 51.1883L87.4452 48.7466L89.6991 52.6503L85.47 55.0919Z" fill="#910000"/>
</svg>
