<svg width="128" height="124" viewBox="0 0 128 124" fill="none" xmlns="http://www.w3.org/2000/svg">
<rect y="0.046875" width="127.844" height="123.05" rx="61.525" fill="white"/>
<path d="M66.344 38.677C68.9506 38.677 71.0643 36.5641 71.0643 33.9576C71.0643 31.351 68.9506 29.2383 66.344 29.2383C63.7384 29.2383 61.6255 31.351 61.6255 33.9576C61.6255 36.5641 63.7384 38.677 66.344 38.677Z" fill="black"/>
<path d="M78.5988 82.2855H67.2629V74.0313H55.9314V65.7755H44.5961V57.5195H34.9419V60.8846H41.232V69.1404H52.5673V77.3964H63.8989V85.6506H75.2351V93.9064H89.7186V90.5424L78.5988 90.5415V82.2855Z" fill="black"/>
<path d="M91.9601 52.1306C91.8798 51.5948 91.3806 51.2252 90.8438 51.3056L88.5786 51.646L88.3851 50.3583C88.3048 49.8345 87.8175 49.4757 87.2945 49.5533L87.0572 49.5889C87.0243 49.3699 86.9486 49.1535 86.8236 48.9546L83.5526 43.7241C83.1994 43.16 82.6619 42.7365 82.0302 42.5257L76.1082 39.764C74.1053 38.8303 71.7872 38.9307 69.866 39.994L68.6348 47.4832L64.0716 43.6144L60.4236 45.9116L55.0955 43.4108C54.2677 42.9472 53.2237 43.222 52.7318 44.0323L52.6642 44.1418C52.4215 44.5443 52.3467 45.0252 52.4599 45.4808C52.572 45.9362 52.8633 46.3277 53.2666 46.5685L59.617 50.358C60.4064 50.8299 61.3693 50.9148 62.2299 50.5899L65.9909 48.5638L67.7743 55.7573L61.8464 55.7272C60.8479 55.7244 59.8998 56.1671 59.2627 56.9365C58.6256 57.7058 58.3674 58.7198 58.5571 59.701L60.5513 69.9675C60.772 71.1046 61.8499 71.8659 62.9953 71.6944L63.0811 71.6815C64.2156 71.5117 65.0195 70.4869 64.9145 69.345L64.2392 61.9889L73.1841 62.197C74.4683 62.2262 75.6963 61.6721 76.5241 60.6893C77.3519 59.7073 77.6886 58.4021 77.4413 57.1408L77.2122 55.9782L75.3727 45.5957L80.1135 46.2957L83.5816 50.3178C83.3773 50.526 83.2577 50.8107 83.3033 51.121L83.4968 52.4106L81.2324 52.751C80.6958 52.8314 80.3271 53.3314 80.4083 53.8681L81.3383 60.0559C81.4196 60.5916 81.9188 60.9613 82.4546 60.8809L92.0667 59.4352C92.6025 59.3549 92.9712 58.8547 92.8909 58.3181L91.9601 52.1306ZM68.8685 50.5206C68.8685 50.1975 69.1304 49.9364 69.4525 49.9364C69.7746 49.9364 70.0366 50.1975 70.0366 50.5206C70.0366 50.8437 69.7746 51.1046 69.4525 51.1046C69.1304 51.1046 68.8685 50.8437 68.8685 50.5206ZM70.075 54.3757C69.7527 54.3757 69.4908 54.1148 69.4908 53.7917C69.4908 53.4686 69.7527 53.2076 70.075 53.2076C70.397 53.2076 70.659 53.4686 70.659 53.7917C70.659 54.1148 70.3972 54.3757 70.075 54.3757ZM84.2253 51.0445C84.7721 51.5756 85.6127 51.676 86.2661 51.2616L86.3045 51.237C86.5801 51.0627 86.7845 50.8181 86.9141 50.5443L87.4325 50.4659L87.4727 50.4952L87.6662 51.7838L84.4098 52.2729L84.2253 51.0445Z" fill="black"/>
<path d="M81.3102 77.8458C82.1042 78.6754 83.4158 78.7256 84.2709 77.958L84.3321 77.9042C85.1846 77.1394 85.2777 75.8352 84.5438 74.9545L79.6556 68.3951L78.0967 60.8008C77.9909 60.9532 77.8822 61.1039 77.7617 61.2472C76.5991 62.6279 74.8956 63.4201 73.0894 63.4201L72.2588 63.4009L74.0814 69.3259C74.503 70.1984 75.0516 71.0053 75.7074 71.7217L81.3102 77.8458Z" fill="black"/>
<path d="M66.1931 44.2552L67.7 45.0291L68.3233 43.3608L67.5101 41.625L65.5342 42.8479L66.1931 44.2552Z" fill="black"/>
</svg>
