<svg width="128" height="124" viewBox="0 0 128 124" fill="none" xmlns="http://www.w3.org/2000/svg">
<rect y="0.046875" width="127.844" height="123.05" rx="61.525" fill="white"/>
<path d="M64.0406 66.4405C52.9706 66.4405 43.5654 69.656 37.4223 74.696V84.0703H90.6631V74.696C84.5199 69.656 75.1127 66.4405 64.0406 66.4405ZM112.922 61.6296L63.9116 39.0703L14.9219 61.6296L23.0882 65.3626V71.1042C21.0405 71.5276 21.0343 72.5994 21.0343 73.8737C21.0343 74.6264 21.2842 75.508 21.7592 76.0358L18.9579 82.0249H28.9508L26.1741 76.0317C26.641 75.5039 27.0239 74.7267 27.0239 73.9739C27.0239 72.7017 25.1359 71.5255 25.1359 71.1021V66.3219L35.3745 70.916V70.5089C41.5177 65.1724 52.3113 61.7851 64.0386 61.7851C75.77 61.7851 86.5677 65.1724 92.7108 70.5089V70.916L112.922 61.6296Z" fill="#C7053C"/>
</svg>
