<svg width="128" height="124" viewBox="0 0 128 124" fill="none" xmlns="http://www.w3.org/2000/svg">
<rect x="0.078125" width="127.844" height="123.05" rx="61.525" fill="white"/>
<path d="M87.4729 97.0859H32.9437C32.6293 97.0859 32.3278 96.9611 32.1055 96.7387C31.8832 96.5164 31.7583 96.2149 31.7583 95.9005V27.1464C31.7583 26.832 31.8832 26.5304 32.1055 26.3081C32.3278 26.0858 32.6293 25.9609 32.9437 25.9609H87.4729C87.7873 25.9609 88.0888 26.0858 88.3111 26.3081C88.5334 26.5304 88.6583 26.832 88.6583 27.1464V95.9005C88.6583 96.2149 88.5334 96.5164 88.3111 96.7387C88.0888 96.9611 87.7873 97.0859 87.4729 97.0859Z" fill="#FDFEFF"/>
<path d="M44.7979 65.081H37.6854C37.371 65.081 37.0695 64.9561 36.8472 64.7338C36.6249 64.5115 36.5 64.21 36.5 63.8956V56.7831C36.5 56.4687 36.6249 56.1672 36.8472 55.9449C37.0695 55.7225 37.371 55.5977 37.6854 55.5977H44.7979C45.1123 55.5977 45.4138 55.7225 45.6361 55.9449C45.8584 56.1672 45.9833 56.4687 45.9833 56.7831V63.8956C45.9833 64.21 45.8584 64.5115 45.6361 64.7338C45.4138 64.9561 45.1123 65.081 44.7979 65.081Z" fill="#FEBC00"/>
<path d="M40.0563 62.7102C39.7419 62.7102 39.4403 62.5853 39.218 62.363C38.9957 62.1406 38.8708 61.8391 38.8708 61.5247V55.5977H37.6854C37.371 55.5977 37.0695 55.7225 36.8472 55.9449C36.6249 56.1672 36.5 56.4687 36.5 56.7831V63.8956C36.5 64.21 36.6249 64.5115 36.8472 64.7338C37.0695 64.9561 37.371 65.081 37.6854 65.081H44.7979C45.1123 65.081 45.4138 64.9561 45.6361 64.7338C45.8584 64.5115 45.9833 64.21 45.9833 63.8956V62.7102H40.0563Z" fill="#EDAA03"/>
<path d="M44.7979 76.9326H37.6854C37.371 76.9326 37.0695 76.8077 36.8472 76.5854C36.6249 76.363 36.5 76.0615 36.5 75.7471V68.6346C36.5 68.3202 36.6249 68.0187 36.8472 67.7964C37.0695 67.5741 37.371 67.4492 37.6854 67.4492H44.7979C45.1123 67.4492 45.4138 67.5741 45.6361 67.7964C45.8584 68.0187 45.9833 68.3202 45.9833 68.6346V75.7471C45.9833 76.0615 45.8584 76.363 45.6361 76.5854C45.4138 76.8077 45.1123 76.9326 44.7979 76.9326Z" fill="#FEBC00"/>
<path d="M44.7979 88.788H37.6854C37.371 88.788 37.0695 88.6631 36.8472 88.4408C36.6249 88.2185 36.5 87.917 36.5 87.6026V80.4901C36.5 80.1757 36.6249 79.8742 36.8472 79.6519C37.0695 79.4296 37.371 79.3047 37.6854 79.3047H44.7979C45.1123 79.3047 45.4138 79.4296 45.6361 79.6519C45.8584 79.8742 45.9833 80.1757 45.9833 80.4901V87.6026C45.9833 87.917 45.8584 88.2185 45.6361 88.4408C45.4138 88.6631 45.1123 88.788 44.7979 88.788Z" fill="#FEBC00"/>
<path d="M67.3208 59.1523H49.5396V61.5232H67.3208V59.1523Z" fill="#0455BF"/>
<path d="M61.3937 71.0078H49.5396V73.3786H61.3937V71.0078Z" fill="#0455BF"/>
<path d="M66.1354 82.8594H49.5396V85.2302H66.1354V82.8594Z" fill="#0455BF"/>
<path d="M47.5153 52.39L39.2178 60.6875L40.8942 62.3639L49.1917 54.0664L47.5153 52.39Z" fill="#F74E0C"/>
<path d="M47.5153 64.2416L39.2178 72.5391L40.8942 74.2155L49.1917 65.918L47.5153 64.2416Z" fill="#F74E0C"/>
<path d="M47.5153 76.097L39.2178 84.3945L40.8942 86.071L49.1917 77.7735L47.5153 76.097Z" fill="#F74E0C"/>
<path d="M48.3542 36.6289H41.2417V38.9997H48.3542V36.6289Z" fill="#0455BF"/>
<path d="M45.9831 37.8164H43.6123V46.1143H45.9831V37.8164Z" fill="#0455BF"/>
<path d="M74.4333 36.6289H67.3208V38.9997H74.4333V36.6289Z" fill="#0455BF"/>
<path d="M72.0622 37.8164H69.6914V46.1143H72.0622V37.8164Z" fill="#0455BF"/>
<path d="M53.0959 37.8164H50.7251V44.9289H53.0959V37.8164Z" fill="#0455BF"/>
<path d="M56.6522 36.6289H50.7251V38.9997H56.6522V36.6289Z" fill="#0455BF"/>
<path d="M56.6522 43.7422H50.7251V46.113H56.6522V43.7422Z" fill="#0455BF"/>
<path d="M56.6522 40.1875H50.7251V42.5583H56.6522V40.1875Z" fill="#0455BF"/>
<path d="M63.7646 46.1122H59.0229V43.7414H62.5792V42.556H60.2084C59.894 42.556 59.5925 42.4311 59.3701 42.2088C59.1478 41.9865 59.0229 41.685 59.0229 41.3706V37.8143C59.0229 37.4999 59.1478 37.1984 59.3701 36.9761C59.5925 36.7538 59.894 36.6289 60.2084 36.6289H64.95V38.9997H61.3938V40.1852H63.7646C64.079 40.1852 64.3805 40.31 64.6028 40.5324C64.8251 40.7547 64.95 41.0562 64.95 41.3706V44.9268C64.95 45.2412 64.8251 45.5427 64.6028 45.765C64.3805 45.9873 64.079 46.1122 63.7646 46.1122Z" fill="#0455BF"/>
<path d="M70.8772 82.8594H68.5063V85.2302H70.8772V82.8594Z" fill="#0455BF"/>
<path d="M75.6189 82.8594H73.248V85.2302H75.6189V82.8594Z" fill="#0455BF"/>
<path d="M40.0563 74.5617C39.7419 74.5617 39.4403 74.4368 39.218 74.2145C38.9957 73.9922 38.8708 73.6907 38.8708 73.3763V67.4492H37.6854C37.371 67.4492 37.0695 67.5741 36.8472 67.7964C36.6249 68.0187 36.5 68.3202 36.5 68.6346V75.7471C36.5 76.0615 36.6249 76.363 36.8472 76.5854C37.0695 76.8077 37.371 76.9326 37.6854 76.9326H44.7979C45.1123 76.9326 45.4138 76.8077 45.6361 76.5854C45.8584 76.363 45.9833 76.0615 45.9833 75.7471V74.5617H40.0563Z" fill="#EDAA03"/>
<path d="M40.0563 86.4172C39.7419 86.4172 39.4403 86.2923 39.218 86.07C38.9957 85.8477 38.8708 85.5462 38.8708 85.2318V79.3047H37.6854C37.371 79.3047 37.0695 79.4296 36.8472 79.6519C36.6249 79.8742 36.5 80.1757 36.5 80.4901V87.6026C36.5 87.917 36.6249 88.2185 36.8472 88.4408C37.0695 88.6631 37.371 88.788 37.6854 88.788H44.7979C45.1123 88.788 45.4138 88.6631 45.6361 88.4408C45.8584 88.2185 45.9833 87.917 45.9833 87.6026V86.4172H40.0563Z" fill="#EDAA03"/>
<path d="M87.4503 48.7107L84.9112 51.251L65.4407 70.7203L63.7479 75.7998L62.5791 78.6626L65.4407 77.4926L70.5202 75.7998L88.6583 57.6617V47.5039L87.4503 48.7107Z" fill="#DFEAEF"/>
<path d="M85.3827 47.6979L65.9126 67.168L70.9914 72.2467L90.4614 52.7766L85.3827 47.6979Z" fill="#F74E0C"/>
<path d="M87.076 49.3893L67.606 68.8594L69.2992 70.5526L88.7692 51.0825L87.076 49.3893Z" fill="#FEBC00"/>
<path d="M87.9231 45.1555L85.3833 47.6953L90.4621 52.7741L93.0018 50.2343L87.9231 45.1555Z" fill="#FDFEFF"/>
<path d="M87.9226 45.1555L85.3828 47.6953L87.076 49.3885L89.6158 46.8487L87.9226 45.1555Z" fill="#DFEAEF"/>
<path d="M93.0014 50.2341L87.9219 45.1546L90.4622 42.6155C90.6845 42.3931 90.9484 42.2167 91.2388 42.0964C91.5293 41.976 91.8406 41.9141 92.155 41.9141C92.4694 41.9141 92.7807 41.976 93.0712 42.0964C93.3616 42.2167 93.6255 42.3931 93.8478 42.6155L95.5405 44.3083C95.763 44.5306 95.9394 44.7946 96.0597 45.0852C96.1801 45.3757 96.2421 45.6871 96.2421 46.0016C96.2421 46.3161 96.1801 46.6275 96.0597 46.9181C95.9394 47.2086 95.763 47.4726 95.5405 47.695L93.0014 50.2341Z" fill="#F74E0C"/>
<path d="M95.5405 44.3083L93.8478 42.6155C93.6255 42.3931 93.3616 42.2167 93.0712 42.0964C92.7807 41.976 92.4694 41.9141 92.155 41.9141C91.8406 41.9141 91.5293 41.976 91.2388 42.0964C90.9484 42.2167 90.6845 42.3931 90.4622 42.6155L87.9219 45.1546L89.6158 46.8486L92.155 44.3083C92.6042 43.8597 93.213 43.6078 93.8478 43.6078C94.4825 43.6078 95.0914 43.8597 95.5405 44.3083Z" fill="#CC2600"/>
<path d="M65.9137 73.9363L64.2197 72.2436L65.9137 67.1641L70.992 72.2436L65.9137 73.9363Z" fill="#F7D694"/>
<path d="M64.2196 72.2461L63.0508 75.1089L65.9136 73.9389L64.2196 72.2461Z" fill="#F74E0C"/>
</svg>
