<svg width="128" height="124" viewBox="0 0 128 124" fill="none" xmlns="http://www.w3.org/2000/svg">
<rect y="0.046875" width="127.844" height="123.05" rx="61.525" fill="white"/>
<path d="M25.3321 34.0703H102.512C104.947 34.0703 106.922 36.0403 106.922 38.4703V84.6703C106.922 87.1004 104.947 89.0703 102.512 89.0703H25.3321C22.8965 89.0703 20.9219 87.1004 20.9219 84.6703V38.4703C20.9219 36.0403 22.8965 34.0703 25.3321 34.0703Z" fill="#0E4595"/>
<path d="M53.2491 72.4305L56.9273 50.8969H62.8106L59.1297 72.4305H53.2491ZM80.3843 51.361C79.2189 50.9248 77.3922 50.4566 75.1116 50.4566C69.2983 50.4566 65.2034 53.3771 65.1687 57.563C65.1357 60.6573 68.092 62.3834 70.3234 63.4134C72.6135 64.4689 73.3832 65.142 73.3724 66.0846C73.358 67.5279 71.5437 68.1873 69.8528 68.1873C67.4981 68.1873 66.2471 67.8609 64.315 67.0569L63.5568 66.7149L62.7311 71.5354C64.1052 72.1364 66.6463 72.6572 69.2845 72.6841C75.4688 72.6841 79.4833 69.7971 79.5291 65.3271C79.5511 62.8775 77.9838 61.0133 74.5895 59.4764C72.5332 58.4804 71.2739 57.8155 71.2872 56.8069C71.2872 55.9119 72.3532 54.9546 74.6563 54.9546C76.5802 54.9249 77.974 55.3435 79.0598 55.7796L79.5869 56.0282L80.3843 51.361ZM95.5236 50.8965H90.9775C89.5692 50.8965 88.5152 51.2801 87.8968 52.6823L79.1597 72.4163H85.3374C85.3374 72.4163 86.3474 69.7627 86.5758 69.1803C87.2512 69.1803 93.2524 69.1895 94.1105 69.1895C94.2865 69.9434 94.8261 72.4163 94.8261 72.4163H100.285L95.5236 50.8965ZM88.3108 64.8016C88.7973 63.5609 90.6549 58.7821 90.6549 58.7821C90.62 58.8395 91.1377 57.5354 91.4348 56.7269L91.8323 58.5835C91.8323 58.5835 92.959 63.7237 93.1944 64.8016H88.3108ZM48.2547 50.8965L42.4949 65.5815L41.8811 62.5972C40.8088 59.1572 37.4681 55.4302 33.7333 53.5642L38.9999 72.3962L45.2245 72.3892L54.4865 50.8963L48.2547 50.8965Z" fill="white"/>
<path d="M37.1209 50.8959H27.6343L27.5592 51.3439C34.9396 53.1264 39.823 57.4339 41.8506 62.609L39.7878 52.7134C39.4316 51.35 38.3986 50.9435 37.1209 50.8959Z" fill="#F2AE14"/>
</svg>
